<svg width="17" height="17" viewBox="0 0 17 17" fill="none" xmlns="http://www.w3.org/2000/svg">
<path d="M9.08333 2.41667H7.41667C4.92436 2.41667 3.6782 2.41667 2.75 2.95257C2.14192 3.30364 1.63697 3.80859 1.2859 4.41667C0.75 5.34487 0.75 6.59102 0.75 9.08333C0.75 11.5756 0.75 12.8218 1.2859 13.75C1.63697 14.3581 2.14192 14.863 2.75 15.2141C3.6782 15.75 4.92436 15.75 7.41667 15.75C9.90898 15.75 11.1551 15.75 12.0833 15.2141C12.6914 14.863 13.1964 14.3581 13.5474 13.75C14.0833 12.8218 14.0833 11.5756 14.0833 9.08333V7.41667M6.26897 10.231L15.75 0.75M15.75 0.75L12.1946 0.75M15.75 0.75V4.30539" stroke="#F2F2F2" stroke-width="1.5" stroke-linecap="round" stroke-linejoin="round"/>
</svg>
