<svg width="20" height="20" viewBox="0 0 20 20" fill="none" xmlns="http://www.w3.org/2000/svg">
<path d="M14.7754 5.75C14.7754 2.98858 12.5368 0.75 9.77539 0.75C7.01397 0.75 4.77539 2.98858 4.77539 5.75M7.64449 18.75L11.9063 18.75C13.4716 18.75 14.2542 18.75 14.9176 18.5398C16.0281 18.1879 16.959 17.419 17.5143 16.3949C17.8459 15.7832 17.9937 15.0146 18.2893 13.4775C18.7064 11.3085 18.915 10.2241 18.7367 9.35027C18.4373 7.88321 17.4279 6.66114 16.0437 6.09011C15.2194 5.75 14.115 5.75 11.9063 5.75L7.64449 5.75C5.43578 5.75 4.33143 5.75 3.50703 6.09011C2.12291 6.66114 1.11346 7.88321 0.814093 9.35027C0.635787 10.2241 0.844341 11.3085 1.26145 13.4775C1.55705 15.0146 1.70485 15.7832 2.03653 16.3949C2.59182 17.419 3.52264 18.1879 4.63322 18.5398C5.29659 18.75 6.07922 18.75 7.64449 18.75Z" stroke="#EEEDE7" stroke-width="1.5" stroke-linecap="round" stroke-linejoin="round"/>
</svg>
