<svg width="15" height="13" viewBox="0 0 15 13" fill="none" xmlns="http://www.w3.org/2000/svg">
<path fill-rule="evenodd" clip-rule="evenodd" d="M13.5603 8.89585C13.5603 10.1625 12.5299 11.1913 11.2649 11.1913H3.73391C2.46884 11.1913 1.43844 10.1625 1.43844 8.89585V4.10399C1.43844 3.68124 1.55419 3.28418 1.75511 2.9434L5.42976 6.61805C5.97951 7.16941 6.71571 7.47322 7.50017 7.47322C8.28301 7.47322 9.01921 7.16941 9.56896 6.61805L13.2436 2.9434C13.4446 3.28418 13.5603 3.68121 13.5603 4.10399V8.89585H13.5603ZM11.2648 1.80855H3.73391C3.21148 1.80855 2.72923 1.98536 2.34345 2.27953L6.05507 5.99276C6.43927 6.37532 6.95202 6.58752 7.50017 6.58752C8.0467 6.58752 8.55948 6.37532 8.94365 5.99276L12.6553 2.27953C12.2695 1.98536 11.7873 1.80855 11.2648 1.80855ZM11.2648 0.922852H3.73391C1.98017 0.922852 0.552734 2.35028 0.552734 4.10402V8.89588C0.552734 10.6512 1.98017 12.0771 3.73391 12.0771H11.2648C13.0186 12.0771 14.446 10.6512 14.446 8.89588V4.10399C14.446 2.35025 13.0186 0.922852 11.2648 0.922852Z" fill="#503217"/>
</svg>
